<svg class="diagram-root" style="background: #f5f6f6" xmlns="http://www.w3.org/2000/svg" xmlns:xlink="http://www.w3.org/1999/xlink"><style>.diagram-root { font-family: "Helvetica Neue", sans-serif; font-size: 12px; } .t { overflow: visible; } .t-bg { y: 40; fill: #fff;   } .th { fill: #005aa0;   } .tht { fill: #fff; font-size: 14px;  } .tf { fill: #323c46; overflow: visible; } .tf.pk { fill: #005aa0; font-weight: bold; } .tf.fk { font-weight: bold; } .ty { fill: #adb1b5; font-weight: normal; text-anchor: end; } .r { fill: transparent; stroke: #c3c3c3; stroke-width: 1; } .l { stroke: 1; } .i { fill: #c2c7ce; stroke: #c2c7ce; } .i.ix { fill: #afb3b6; stroke: #000; } .fa { fill: transparent; overflow: visible; } .fa .bg.hover { fill: #f7f7f7; } .c { cy: 12; r: 4; stroke: #d2d2dc; fill: #d2d2dc; } .hr { fill: transparent; stroke: #323c46; stroke-opacity: 0.035; stroke-width: 13; } .dc { stroke: #fa5a3c; fill: #fa5a3c; } .x { stroke: white; stroke-width: 1; } .hl .th { fill: #1b9bff; } .hl .tht {  } .fhl .bg { fill: #e7f4ff; } .fhls .bg {  } .r.hl { stroke: #1b9bff; } .dim { opacity: 0.25; }</style><g class="drawing-wrapper" transform="translate(308, 18) scale(1,1)"><g class="rs"><path d="M 238 87 m -1, 0 a 1,1 0 1,0 2,0 a 1,1 0 1,0 -2,0 M 238 87 m -0.5, 0 a 0.5,0.5 0 1,0 1,0 a 0.5,0.5 0 1,0 -1,0  M238 87 L238 87 250 87 M 238 93 m -1, 0 a 1,1 0 1,0 2,0 a 1,1 0 1,0 -2,0 M 238 93 m -0.5, 0 a 0.5,0.5 0 1,0 1,0 a 0.5,0.5 0 1,0 -1,0  M238 93 L238 93 245 87 238 81 M 238 81 m -1, 0 a 1,1 0 1,0 2,0 a 1,1 0 1,0 -2,0 M 238 81 m -0.5, 0 a 0.5,0.5 0 1,0 1,0 a 0.5,0.5 0 1,0 -1,0  M250 87 Q 275.5 87, 301 125.25 T 352 163.5 M 364 163.5 m -1, 0 a 1,1 0 1,0 2,0 a 1,1 0 1,0 -2,0 M 364 163.5 m -0.5, 0 a 0.5,0.5 0 1,0 1,0 a 0.5,0.5 0 1,0 -1,0  M364 163.5 L364 163.5 352 163.5 M358 169.5 L358 169.5 358 157.5" id="h3745838446" class="r"></path><path d="M 238 112 m -1, 0 a 1,1 0 1,0 2,0 a 1,1 0 1,0 -2,0 M 238 112 m -0.5, 0 a 0.5,0.5 0 1,0 1,0 a 0.5,0.5 0 1,0 -1,0  M238 112 L238 112 250 112 M 238 118 m -1, 0 a 1,1 0 1,0 2,0 a 1,1 0 1,0 -2,0 M 238 118 m -0.5, 0 a 0.5,0.5 0 1,0 1,0 a 0.5,0.5 0 1,0 -1,0  M238 118 L238 118 245 112 238 106 M 238 106 m -1, 0 a 1,1 0 1,0 2,0 a 1,1 0 1,0 -2,0 M 238 106 m -0.5, 0 a 0.5,0.5 0 1,0 1,0 a 0.5,0.5 0 1,0 -1,0  M250 112 Q 275.5 112, 301 162.75 T 352 213.5 M 364 213.5 m -1, 0 a 1,1 0 1,0 2,0 a 1,1 0 1,0 -2,0 M 364 213.5 m -0.5, 0 a 0.5,0.5 0 1,0 1,0 a 0.5,0.5 0 1,0 -1,0  M364 213.5 L364 213.5 352 213.5 M358 219.5 L358 219.5 358 207.5" id="h1044306467" class="r"></path><path d="M 238 137 m -1, 0 a 1,1 0 1,0 2,0 a 1,1 0 1,0 -2,0 M 238 137 m -0.5, 0 a 0.5,0.5 0 1,0 1,0 a 0.5,0.5 0 1,0 -1,0  M238 137 L238 137 250 137 M 238 143 m -1, 0 a 1,1 0 1,0 2,0 a 1,1 0 1,0 -2,0 M 238 143 m -0.5, 0 a 0.5,0.5 0 1,0 1,0 a 0.5,0.5 0 1,0 -1,0  M238 143 L238 143 245 137 238 131 M 238 131 m -1, 0 a 1,1 0 1,0 2,0 a 1,1 0 1,0 -2,0 M 238 131 m -0.5, 0 a 0.5,0.5 0 1,0 1,0 a 0.5,0.5 0 1,0 -1,0  M250 137 Q 275.5 137, 301 200.25 T 352 263.5 M 364 263.5 m -1, 0 a 1,1 0 1,0 2,0 a 1,1 0 1,0 -2,0 M 364 263.5 m -0.5, 0 a 0.5,0.5 0 1,0 1,0 a 0.5,0.5 0 1,0 -1,0  M364 263.5 L364 263.5 352 263.5 M358 269.5 L358 269.5 358 257.5" id="h1381048528" class="r"></path><path d="M 238 162 m -1, 0 a 1,1 0 1,0 2,0 a 1,1 0 1,0 -2,0 M 238 162 m -0.5, 0 a 0.5,0.5 0 1,0 1,0 a 0.5,0.5 0 1,0 -1,0  M238 162 L238 162 250 162 M 238 168 m -1, 0 a 1,1 0 1,0 2,0 a 1,1 0 1,0 -2,0 M 238 168 m -0.5, 0 a 0.5,0.5 0 1,0 1,0 a 0.5,0.5 0 1,0 -1,0  M238 168 L238 168 245 162 238 156 M 238 156 m -1, 0 a 1,1 0 1,0 2,0 a 1,1 0 1,0 -2,0 M 238 156 m -0.5, 0 a 0.5,0.5 0 1,0 1,0 a 0.5,0.5 0 1,0 -1,0  M250 162 Q 275.5 162, 301 225.25 T 352 288.5 M 364 288.5 m -1, 0 a 1,1 0 1,0 2,0 a 1,1 0 1,0 -2,0 M 364 288.5 m -0.5, 0 a 0.5,0.5 0 1,0 1,0 a 0.5,0.5 0 1,0 -1,0  M364 288.5 L364 288.5 352 288.5 M358 294.5 L358 294.5 358 282.5" id="h1661089418" class="r"></path><path d="M 238 187 m -1, 0 a 1,1 0 1,0 2,0 a 1,1 0 1,0 -2,0 M 238 187 m -0.5, 0 a 0.5,0.5 0 1,0 1,0 a 0.5,0.5 0 1,0 -1,0  M238 187 L238 187 250 187 M 238 193 m -1, 0 a 1,1 0 1,0 2,0 a 1,1 0 1,0 -2,0 M 238 193 m -0.5, 0 a 0.5,0.5 0 1,0 1,0 a 0.5,0.5 0 1,0 -1,0  M238 193 L238 193 245 187 238 181 M 238 181 m -1, 0 a 1,1 0 1,0 2,0 a 1,1 0 1,0 -2,0 M 238 181 m -0.5, 0 a 0.5,0.5 0 1,0 1,0 a 0.5,0.5 0 1,0 -1,0  M250 187 Q 275.5 187, 301 250.25 T 352 313.5 M 364 313.5 m -1, 0 a 1,1 0 1,0 2,0 a 1,1 0 1,0 -2,0 M 364 313.5 m -0.5, 0 a 0.5,0.5 0 1,0 1,0 a 0.5,0.5 0 1,0 -1,0  M364 313.5 L364 313.5 352 313.5 M358 319.5 L358 319.5 358 307.5" id="h1560670081" class="r"></path><path d="M 238 237 m -1, 0 a 1,1 0 1,0 2,0 a 1,1 0 1,0 -2,0 M 238 237 m -0.5, 0 a 0.5,0.5 0 1,0 1,0 a 0.5,0.5 0 1,0 -1,0  M238 237 L238 237 250 237 M 238 243 m -1, 0 a 1,1 0 1,0 2,0 a 1,1 0 1,0 -2,0 M 238 243 m -0.5, 0 a 0.5,0.5 0 1,0 1,0 a 0.5,0.5 0 1,0 -1,0  M238 243 L238 243 245 237 238 231 M 238 231 m -1, 0 a 1,1 0 1,0 2,0 a 1,1 0 1,0 -2,0 M 238 231 m -0.5, 0 a 0.5,0.5 0 1,0 1,0 a 0.5,0.5 0 1,0 -1,0  M250 237 Q 275.5 237, 301 287.75 T 352 338.5 M 364 338.5 m -1, 0 a 1,1 0 1,0 2,0 a 1,1 0 1,0 -2,0 M 364 338.5 m -0.5, 0 a 0.5,0.5 0 1,0 1,0 a 0.5,0.5 0 1,0 -1,0  M364 338.5 L364 338.5 352 338.5 M358 344.5 L358 344.5 358 332.5" id="h1548944090" class="r"></path><path d="M -84 371 m -1, 0 a 1,1 0 1,0 2,0 a 1,1 0 1,0 -2,0 M -84 371 m -0.5, 0 a 0.5,0.5 0 1,0 1,0 a 0.5,0.5 0 1,0 -1,0  M-84 371 L-84 371 -72 371 M -84 377 m -1, 0 a 1,1 0 1,0 2,0 a 1,1 0 1,0 -2,0 M -84 377 m -0.5, 0 a 0.5,0.5 0 1,0 1,0 a 0.5,0.5 0 1,0 -1,0  M-84 377 L-84 377 -77 371 -84 365 M -84 365 m -1, 0 a 1,1 0 1,0 2,0 a 1,1 0 1,0 -2,0 M -84 365 m -0.5, 0 a 0.5,0.5 0 1,0 1,0 a 0.5,0.5 0 1,0 -1,0  M-72 371 Q -49.25 371, -26.5 374 T 19 377 M 31 377 m -1, 0 a 1,1 0 1,0 2,0 a 1,1 0 1,0 -2,0 M 31 377 m -0.5, 0 a 0.5,0.5 0 1,0 1,0 a 0.5,0.5 0 1,0 -1,0  M31 377 L31 377 19 377 M25 383 L25 383 25 371" id="h889801241" class="r"></path><path d="M -84 471 m -1, 0 a 1,1 0 1,0 2,0 a 1,1 0 1,0 -2,0 M -84 471 m -0.5, 0 a 0.5,0.5 0 1,0 1,0 a 0.5,0.5 0 1,0 -1,0  M-84 471 L-84 471 -72 471 M -84 477 m -1, 0 a 1,1 0 1,0 2,0 a 1,1 0 1,0 -2,0 M -84 477 m -0.5, 0 a 0.5,0.5 0 1,0 1,0 a 0.5,0.5 0 1,0 -1,0  M-84 477 L-84 477 -77 471 -84 465 M -84 465 m -1, 0 a 1,1 0 1,0 2,0 a 1,1 0 1,0 -2,0 M -84 465 m -0.5, 0 a 0.5,0.5 0 1,0 1,0 a 0.5,0.5 0 1,0 -1,0  M-72 471 Q -49.25 471, -26.5 399 T 19 327 M 31 327 m -1, 0 a 1,1 0 1,0 2,0 a 1,1 0 1,0 -2,0 M 31 327 m -0.5, 0 a 0.5,0.5 0 1,0 1,0 a 0.5,0.5 0 1,0 -1,0  M31 327 L31 327 19 327 M25 333 L25 333 25 321" id="h3837904613" class="r"></path><path d="M -84 496 m -1, 0 a 1,1 0 1,0 2,0 a 1,1 0 1,0 -2,0 M -84 496 m -0.5, 0 a 0.5,0.5 0 1,0 1,0 a 0.5,0.5 0 1,0 -1,0  M-84 496 L-84 496 -72 496 M -84 502 m -1, 0 a 1,1 0 1,0 2,0 a 1,1 0 1,0 -2,0 M -84 502 m -0.5, 0 a 0.5,0.5 0 1,0 1,0 a 0.5,0.5 0 1,0 -1,0  M-84 502 L-84 502 -77 496 -84 490 M -84 490 m -1, 0 a 1,1 0 1,0 2,0 a 1,1 0 1,0 -2,0 M -84 490 m -0.5, 0 a 0.5,0.5 0 1,0 1,0 a 0.5,0.5 0 1,0 -1,0  M-72 496 Q -49.25 496, -26.5 424 T 19 352 M 31 352 m -1, 0 a 1,1 0 1,0 2,0 a 1,1 0 1,0 -2,0 M 31 352 m -0.5, 0 a 0.5,0.5 0 1,0 1,0 a 0.5,0.5 0 1,0 -1,0  M31 352 L31 352 19 352 M25 358 L25 358 25 346" id="h3046656117" class="r"></path><path d="M 239 352 m -1, 0 a 1,1 0 1,0 2,0 a 1,1 0 1,0 -2,0 M 239 352 m -0.5, 0 a 0.5,0.5 0 1,0 1,0 a 0.5,0.5 0 1,0 -1,0  M239 352 L239 352 251 352 M 239 358 m -1, 0 a 1,1 0 1,0 2,0 a 1,1 0 1,0 -2,0 M 239 358 m -0.5, 0 a 0.5,0.5 0 1,0 1,0 a 0.5,0.5 0 1,0 -1,0  M239 358 L239 358 246 352 239 346 M 239 346 m -1, 0 a 1,1 0 1,0 2,0 a 1,1 0 1,0 -2,0 M 239 346 m -0.5, 0 a 0.5,0.5 0 1,0 1,0 a 0.5,0.5 0 1,0 -1,0  M251 352 Q 276.25 352, 301.5 270.25 T 352 188.5 M 364 188.5 m -1, 0 a 1,1 0 1,0 2,0 a 1,1 0 1,0 -2,0 M 364 188.5 m -0.5, 0 a 0.5,0.5 0 1,0 1,0 a 0.5,0.5 0 1,0 -1,0  M364 188.5 L364 188.5 352 188.5 M358 194.5 L358 194.5 358 182.5" id="h3976497716" class="r"></path><path d="M 239 377 m -1, 0 a 1,1 0 1,0 2,0 a 1,1 0 1,0 -2,0 M 239 377 m -0.5, 0 a 0.5,0.5 0 1,0 1,0 a 0.5,0.5 0 1,0 -1,0  M239 377 L239 377 251 377 M 239 383 m -1, 0 a 1,1 0 1,0 2,0 a 1,1 0 1,0 -2,0 M 239 383 m -0.5, 0 a 0.5,0.5 0 1,0 1,0 a 0.5,0.5 0 1,0 -1,0  M239 383 L239 383 246 377 239 371 M 239 371 m -1, 0 a 1,1 0 1,0 2,0 a 1,1 0 1,0 -2,0 M 239 371 m -0.5, 0 a 0.5,0.5 0 1,0 1,0 a 0.5,0.5 0 1,0 -1,0  M251 377 Q 276.25 377, 301.5 307.75 T 352 238.5 M 364 238.5 m -1, 0 a 1,1 0 1,0 2,0 a 1,1 0 1,0 -2,0 M 364 238.5 m -0.5, 0 a 0.5,0.5 0 1,0 1,0 a 0.5,0.5 0 1,0 -1,0  M364 238.5 L364 238.5 352 238.5 M358 244.5 L358 244.5 358 232.5" id="h1810707942" class="r"></path><path d="M 239 402 m -1, 0 a 1,1 0 1,0 2,0 a 1,1 0 1,0 -2,0 M 239 402 m -0.5, 0 a 0.5,0.5 0 1,0 1,0 a 0.5,0.5 0 1,0 -1,0  M239 402 L239 402 251 402 M 239 408 m -1, 0 a 1,1 0 1,0 2,0 a 1,1 0 1,0 -2,0 M 239 408 m -0.5, 0 a 0.5,0.5 0 1,0 1,0 a 0.5,0.5 0 1,0 -1,0  M239 408 L239 408 246 402 239 396 M 239 396 m -1, 0 a 1,1 0 1,0 2,0 a 1,1 0 1,0 -2,0 M 239 396 m -0.5, 0 a 0.5,0.5 0 1,0 1,0 a 0.5,0.5 0 1,0 -1,0  M251 402 Q 276.25 402, 301.5 307.75 T 352 213.5 M 364 213.5 m -1, 0 a 1,1 0 1,0 2,0 a 1,1 0 1,0 -2,0 M 364 213.5 m -0.5, 0 a 0.5,0.5 0 1,0 1,0 a 0.5,0.5 0 1,0 -1,0  M364 213.5 L364 213.5 352 213.5 M358 219.5 L358 219.5 358 207.5" id="h2537180911" class="r"></path><path d="M 572 188.5 m -1, 0 a 1,1 0 1,0 2,0 a 1,1 0 1,0 -2,0 M 572 188.5 m -0.5, 0 a 0.5,0.5 0 1,0 1,0 a 0.5,0.5 0 1,0 -1,0  M572 188.5 L572 188.5 584 188.5 M 572 194.5 m -1, 0 a 1,1 0 1,0 2,0 a 1,1 0 1,0 -2,0 M 572 194.5 m -0.5, 0 a 0.5,0.5 0 1,0 1,0 a 0.5,0.5 0 1,0 -1,0  M572 194.5 L572 194.5 579 188.5 572 182.5 M 572 182.5 m -1, 0 a 1,1 0 1,0 2,0 a 1,1 0 1,0 -2,0 M 572 182.5 m -0.5, 0 a 0.5,0.5 0 1,0 1,0 a 0.5,0.5 0 1,0 -1,0  M584 188.5 Q 629.9 188.5, 675.79 247.27 T 767.58 306.03 M 779.58 306.03 m -1, 0 a 1,1 0 1,0 2,0 a 1,1 0 1,0 -2,0 M 779.58 306.03 m -0.5, 0 a 0.5,0.5 0 1,0 1,0 a 0.5,0.5 0 1,0 -1,0  M779.58 306.03 L779.58 306.03 767.58 306.03 M773.58 312.03 L773.58 312.03 773.58 300.03" id="h1011292325" class="r"></path><path d="M 572 363.5 m -1, 0 a 1,1 0 1,0 2,0 a 1,1 0 1,0 -2,0 M 572 363.5 m -0.5, 0 a 0.5,0.5 0 1,0 1,0 a 0.5,0.5 0 1,0 -1,0  M572 363.5 L572 363.5 584 363.5 M 572 369.5 m -1, 0 a 1,1 0 1,0 2,0 a 1,1 0 1,0 -2,0 M 572 369.5 m -0.5, 0 a 0.5,0.5 0 1,0 1,0 a 0.5,0.5 0 1,0 -1,0  M572 369.5 L572 369.5 579 363.5 572 357.5 M 572 357.5 m -1, 0 a 1,1 0 1,0 2,0 a 1,1 0 1,0 -2,0 M 572 357.5 m -0.5, 0 a 0.5,0.5 0 1,0 1,0 a 0.5,0.5 0 1,0 -1,0  M584 363.5 Q 645.94 363.5, 707.88 560.88 T 831.75 758.25 M 843.75 758.25 m -1, 0 a 1,1 0 1,0 2,0 a 1,1 0 1,0 -2,0 M 843.75 758.25 m -0.5, 0 a 0.5,0.5 0 1,0 1,0 a 0.5,0.5 0 1,0 -1,0  M843.75 758.25 L843.75 758.25 831.75 758.25 M837.75 764.25 L837.75 764.25 837.75 752.25" id="h1481082596" class="r"></path><path d="M 573.75 662.25 m -1, 0 a 1,1 0 1,0 2,0 a 1,1 0 1,0 -2,0 M 573.75 662.25 m -0.5, 0 a 0.5,0.5 0 1,0 1,0 a 0.5,0.5 0 1,0 -1,0  M573.75 662.25 L573.75 662.25 585.75 662.25 M 573.75 668.25 m -1, 0 a 1,1 0 1,0 2,0 a 1,1 0 1,0 -2,0 M 573.75 668.25 m -0.5, 0 a 0.5,0.5 0 1,0 1,0 a 0.5,0.5 0 1,0 -1,0  M573.75 668.25 L573.75 668.25 580.75 662.25 573.75 656.25 M 573.75 656.25 m -1, 0 a 1,1 0 1,0 2,0 a 1,1 0 1,0 -2,0 M 573.75 656.25 m -0.5, 0 a 0.5,0.5 0 1,0 1,0 a 0.5,0.5 0 1,0 -1,0  M585.75 662.25 Q 631.21 662.25, 676.67 509.14 T 767.58 356.03 M 779.58 356.03 m -1, 0 a 1,1 0 1,0 2,0 a 1,1 0 1,0 -2,0 M 779.58 356.03 m -0.5, 0 a 0.5,0.5 0 1,0 1,0 a 0.5,0.5 0 1,0 -1,0  M779.58 356.03 L779.58 356.03 767.58 356.03 M773.58 362.03 L773.58 362.03 773.58 350.03" id="h2969358454" class="r"></path><path d="M 573.75 737.25 m -1, 0 a 1,1 0 1,0 2,0 a 1,1 0 1,0 -2,0 M 573.75 737.25 m -0.5, 0 a 0.5,0.5 0 1,0 1,0 a 0.5,0.5 0 1,0 -1,0  M573.75 737.25 L573.75 737.25 585.75 737.25 M 573.75 743.25 m -1, 0 a 1,1 0 1,0 2,0 a 1,1 0 1,0 -2,0 M 573.75 743.25 m -0.5, 0 a 0.5,0.5 0 1,0 1,0 a 0.5,0.5 0 1,0 -1,0  M573.75 743.25 L573.75 743.25 580.75 737.25 573.75 731.25 M 573.75 731.25 m -1, 0 a 1,1 0 1,0 2,0 a 1,1 0 1,0 -2,0 M 573.75 731.25 m -0.5, 0 a 0.5,0.5 0 1,0 1,0 a 0.5,0.5 0 1,0 -1,0  M585.75 737.25 Q 631.21 737.25, 676.67 559.14 T 767.58 381.03 M 779.58 381.03 m -1, 0 a 1,1 0 1,0 2,0 a 1,1 0 1,0 -2,0 M 779.58 381.03 m -0.5, 0 a 0.5,0.5 0 1,0 1,0 a 0.5,0.5 0 1,0 -1,0  M779.58 381.03 L779.58 381.03 767.58 381.03 M773.58 387.03 L773.58 387.03 773.58 375.03" id="h3720703956" class="r"></path><path d="M 573.75 837.25 m -1, 0 a 1,1 0 1,0 2,0 a 1,1 0 1,0 -2,0 M 573.75 837.25 m -0.5, 0 a 0.5,0.5 0 1,0 1,0 a 0.5,0.5 0 1,0 -1,0  M573.75 837.25 L573.75 837.25 585.75 837.25 M 573.75 843.25 m -1, 0 a 1,1 0 1,0 2,0 a 1,1 0 1,0 -2,0 M 573.75 843.25 m -0.5, 0 a 0.5,0.5 0 1,0 1,0 a 0.5,0.5 0 1,0 -1,0  M573.75 843.25 L573.75 843.25 580.75 837.25 573.75 831.25 M 573.75 831.25 m -1, 0 a 1,1 0 1,0 2,0 a 1,1 0 1,0 -2,0 M 573.75 831.25 m -0.5, 0 a 0.5,0.5 0 1,0 1,0 a 0.5,0.5 0 1,0 -1,0  M585.75 837.25 Q 647.25 837.25, 708.75 822.75 T 831.75 808.25 M 843.75 808.25 m -1, 0 a 1,1 0 1,0 2,0 a 1,1 0 1,0 -2,0 M 843.75 808.25 m -0.5, 0 a 0.5,0.5 0 1,0 1,0 a 0.5,0.5 0 1,0 -1,0  M843.75 808.25 L843.75 808.25 831.75 808.25 M837.75 814.25 L837.75 814.25 837.75 802.25" id="h3710867921" class="r"></path><path d="M 573.75 862.25 m -1, 0 a 1,1 0 1,0 2,0 a 1,1 0 1,0 -2,0 M 573.75 862.25 m -0.5, 0 a 0.5,0.5 0 1,0 1,0 a 0.5,0.5 0 1,0 -1,0  M573.75 862.25 L573.75 862.25 585.75 862.25 M 573.75 868.25 m -1, 0 a 1,1 0 1,0 2,0 a 1,1 0 1,0 -2,0 M 573.75 868.25 m -0.5, 0 a 0.5,0.5 0 1,0 1,0 a 0.5,0.5 0 1,0 -1,0  M573.75 868.25 L573.75 868.25 580.75 862.25 573.75 856.25 M 573.75 856.25 m -1, 0 a 1,1 0 1,0 2,0 a 1,1 0 1,0 -2,0 M 573.75 856.25 m -0.5, 0 a 0.5,0.5 0 1,0 1,0 a 0.5,0.5 0 1,0 -1,0  M585.75 862.25 Q 647.25 862.25, 708.75 847.75 T 831.75 833.25 M 843.75 833.25 m -1, 0 a 1,1 0 1,0 2,0 a 1,1 0 1,0 -2,0 M 843.75 833.25 m -0.5, 0 a 0.5,0.5 0 1,0 1,0 a 0.5,0.5 0 1,0 -1,0  M843.75 833.25 L843.75 833.25 831.75 833.25 M837.75 839.25 L837.75 839.25 837.75 827.25" id="h917532670" class="r"></path><path d="M 573.75 887.25 m -1, 0 a 1,1 0 1,0 2,0 a 1,1 0 1,0 -2,0 M 573.75 887.25 m -0.5, 0 a 0.5,0.5 0 1,0 1,0 a 0.5,0.5 0 1,0 -1,0  M573.75 887.25 L573.75 887.25 585.75 887.25 M 573.75 893.25 m -1, 0 a 1,1 0 1,0 2,0 a 1,1 0 1,0 -2,0 M 573.75 893.25 m -0.5, 0 a 0.5,0.5 0 1,0 1,0 a 0.5,0.5 0 1,0 -1,0  M573.75 893.25 L573.75 893.25 580.75 887.25 573.75 881.25 M 573.75 881.25 m -1, 0 a 1,1 0 1,0 2,0 a 1,1 0 1,0 -2,0 M 573.75 881.25 m -0.5, 0 a 0.5,0.5 0 1,0 1,0 a 0.5,0.5 0 1,0 -1,0  M585.75 887.25 Q 631.21 887.25, 676.67 671.64 T 767.58 456.03 M 779.58 456.03 m -1, 0 a 1,1 0 1,0 2,0 a 1,1 0 1,0 -2,0 M 779.58 456.03 m -0.5, 0 a 0.5,0.5 0 1,0 1,0 a 0.5,0.5 0 1,0 -1,0  M779.58 456.03 L779.58 456.03 767.58 456.03 M773.58 462.03 L773.58 462.03 773.58 450.03" id="h3371273769" class="r"></path><path d="M 573.75 912.25 m -1, 0 a 1,1 0 1,0 2,0 a 1,1 0 1,0 -2,0 M 573.75 912.25 m -0.5, 0 a 0.5,0.5 0 1,0 1,0 a 0.5,0.5 0 1,0 -1,0  M573.75 912.25 L573.75 912.25 585.75 912.25 M 573.75 918.25 m -1, 0 a 1,1 0 1,0 2,0 a 1,1 0 1,0 -2,0 M 573.75 918.25 m -0.5, 0 a 0.5,0.5 0 1,0 1,0 a 0.5,0.5 0 1,0 -1,0  M573.75 918.25 L573.75 918.25 580.75 912.25 573.75 906.25 M 573.75 906.25 m -1, 0 a 1,1 0 1,0 2,0 a 1,1 0 1,0 -2,0 M 573.75 906.25 m -0.5, 0 a 0.5,0.5 0 1,0 1,0 a 0.5,0.5 0 1,0 -1,0  M585.75 912.25 Q 631.21 912.25, 676.67 696.64 T 767.58 481.03 M 779.58 481.03 m -1, 0 a 1,1 0 1,0 2,0 a 1,1 0 1,0 -2,0 M 779.58 481.03 m -0.5, 0 a 0.5,0.5 0 1,0 1,0 a 0.5,0.5 0 1,0 -1,0  M779.58 481.03 L779.58 481.03 767.58 481.03 M773.58 487.03 L773.58 487.03 773.58 475.03" id="h1486182671" class="r"></path><path d="M 573.75 937.25 m -1, 0 a 1,1 0 1,0 2,0 a 1,1 0 1,0 -2,0 M 573.75 937.25 m -0.5, 0 a 0.5,0.5 0 1,0 1,0 a 0.5,0.5 0 1,0 -1,0  M573.75 937.25 L573.75 937.25 585.75 937.25 M 573.75 943.25 m -1, 0 a 1,1 0 1,0 2,0 a 1,1 0 1,0 -2,0 M 573.75 943.25 m -0.5, 0 a 0.5,0.5 0 1,0 1,0 a 0.5,0.5 0 1,0 -1,0  M573.75 943.25 L573.75 943.25 580.75 937.25 573.75 931.25 M 573.75 931.25 m -1, 0 a 1,1 0 1,0 2,0 a 1,1 0 1,0 -2,0 M 573.75 931.25 m -0.5, 0 a 0.5,0.5 0 1,0 1,0 a 0.5,0.5 0 1,0 -1,0  M585.75 937.25 Q 631.21 937.25, 676.67 721.64 T 767.58 506.03 M 779.58 506.03 m -1, 0 a 1,1 0 1,0 2,0 a 1,1 0 1,0 -2,0 M 779.58 506.03 m -0.5, 0 a 0.5,0.5 0 1,0 1,0 a 0.5,0.5 0 1,0 -1,0  M779.58 506.03 L779.58 506.03 767.58 506.03 M773.58 512.03 L773.58 512.03 773.58 500.03" id="h1559541199" class="r"></path><path d="M 573.75 962.25 m -1, 0 a 1,1 0 1,0 2,0 a 1,1 0 1,0 -2,0 M 573.75 962.25 m -0.5, 0 a 0.5,0.5 0 1,0 1,0 a 0.5,0.5 0 1,0 -1,0  M573.75 962.25 L573.75 962.25 585.75 962.25 M 573.75 968.25 m -1, 0 a 1,1 0 1,0 2,0 a 1,1 0 1,0 -2,0 M 573.75 968.25 m -0.5, 0 a 0.5,0.5 0 1,0 1,0 a 0.5,0.5 0 1,0 -1,0  M573.75 968.25 L573.75 968.25 580.75 962.25 573.75 956.25 M 573.75 956.25 m -1, 0 a 1,1 0 1,0 2,0 a 1,1 0 1,0 -2,0 M 573.75 956.25 m -0.5, 0 a 0.5,0.5 0 1,0 1,0 a 0.5,0.5 0 1,0 -1,0  M585.75 962.25 Q 631.21 962.25, 676.67 746.64 T 767.58 531.03 M 779.58 531.03 m -1, 0 a 1,1 0 1,0 2,0 a 1,1 0 1,0 -2,0 M 779.58 531.03 m -0.5, 0 a 0.5,0.5 0 1,0 1,0 a 0.5,0.5 0 1,0 -1,0  M779.58 531.03 L779.58 531.03 767.58 531.03 M773.58 537.03 L773.58 537.03 773.58 525.03" id="h758033094" class="r"></path><path d="M 573.75 1012.25 m -1, 0 a 1,1 0 1,0 2,0 a 1,1 0 1,0 -2,0 M 573.75 1012.25 m -0.5, 0 a 0.5,0.5 0 1,0 1,0 a 0.5,0.5 0 1,0 -1,0  M573.75 1012.25 L573.75 1012.25 585.75 1012.25 M 573.75 1018.25 m -1, 0 a 1,1 0 1,0 2,0 a 1,1 0 1,0 -2,0 M 573.75 1018.25 m -0.5, 0 a 0.5,0.5 0 1,0 1,0 a 0.5,0.5 0 1,0 -1,0  M573.75 1018.25 L573.75 1018.25 580.75 1012.25 573.75 1006.25 M 573.75 1006.25 m -1, 0 a 1,1 0 1,0 2,0 a 1,1 0 1,0 -2,0 M 573.75 1006.25 m -0.5, 0 a 0.5,0.5 0 1,0 1,0 a 0.5,0.5 0 1,0 -1,0  M585.75 1012.25 Q 631.21 1012.25, 676.67 784.14 T 767.58 556.03 M 779.58 556.03 m -1, 0 a 1,1 0 1,0 2,0 a 1,1 0 1,0 -2,0 M 779.58 556.03 m -0.5, 0 a 0.5,0.5 0 1,0 1,0 a 0.5,0.5 0 1,0 -1,0  M779.58 556.03 L779.58 556.03 767.58 556.03 M773.58 562.03 L773.58 562.03 773.58 550.03" id="h4216451862" class="r"></path><path d="M 573.75 1037.25 m -1, 0 a 1,1 0 1,0 2,0 a 1,1 0 1,0 -2,0 M 573.75 1037.25 m -0.5, 0 a 0.5,0.5 0 1,0 1,0 a 0.5,0.5 0 1,0 -1,0  M573.75 1037.25 L573.75 1037.25 585.75 1037.25 M 573.75 1043.25 m -1, 0 a 1,1 0 1,0 2,0 a 1,1 0 1,0 -2,0 M 573.75 1043.25 m -0.5, 0 a 0.5,0.5 0 1,0 1,0 a 0.5,0.5 0 1,0 -1,0  M573.75 1043.25 L573.75 1043.25 580.75 1037.25 573.75 1031.25 M 573.75 1031.25 m -1, 0 a 1,1 0 1,0 2,0 a 1,1 0 1,0 -2,0 M 573.75 1031.25 m -0.5, 0 a 0.5,0.5 0 1,0 1,0 a 0.5,0.5 0 1,0 -1,0  M585.75 1037.25 Q 631.21 1037.25, 676.67 809.14 T 767.58 581.03 M 779.58 581.03 m -1, 0 a 1,1 0 1,0 2,0 a 1,1 0 1,0 -2,0 M 779.58 581.03 m -0.5, 0 a 0.5,0.5 0 1,0 1,0 a 0.5,0.5 0 1,0 -1,0  M779.58 581.03 L779.58 581.03 767.58 581.03 M773.58 587.03 L773.58 587.03 773.58 575.03" id="h192201586" class="r"></path></g><g class="hrs"></g><g class="ts"><svg width="208" height="225" x="30" y="30" id="h777273391" class="t"><rect height="40" width="208" class="th"></rect><text x="13" y="25" class="tht">Tweets_Source</text><rect height="185" width="208" class="t-bg" y="40"></rect><text x="13" y="61" class="tf pk">tweet_id<tspan x="195" class="ty">VARCHAR(255)</tspan></text><path d="M7,14A2,2 0 0,1 5,12A2,2 0 0,1 7,10A2,2 0 0,1 9,12A2,2 0 0,1 7,14M12.65,10C11.83,7.67 9.61,6 7, 6A6, 6 0 0, 0 1, 12A6, 6 0 0, 0 7, 18C9.61, 18 11.83, 16.33 12.65, 14H17V18H21V14H23V10H12.65Z" class="i pk" transform="translate(90, 48) scale(0.65)"></path><text x="13" y="86" class="tf fk">screen_name<tspan x="195" class="ty">VARCHAR(255)</tspan></text><text x="13" y="111" class="tf fk">time<tspan x="195" class="ty">VARCHAR(255)</tspan></text><text x="13" y="136" class="tf fk">url<tspan x="195" class="ty">VARCHAR(255)</tspan></text><text x="13" y="161" class="tf fk">twt_txt<tspan x="195" class="ty">TEXT</tspan></text><text x="13" y="186" class="tf">twt_source<tspan x="195" class="ty">VARCHAR(255)</tspan></text><text x="13" y="211" class="tf fk">user_id<tspan x="195" class="ty">VARCHAR(255)</tspan></text></svg><svg width="202" height="275" x="-286" y="289" id="h759786339" class="t"><rect height="40" width="202" class="th"></rect><text x="13" y="25" class="tht">member_accounts</text><rect height="235" width="202" class="t-bg" y="40"></rect><text x="13" y="61" class="tf pk">table_id<tspan x="189" class="ty">SERIAL,</tspan></text><path d="M7,14A2,2 0 0,1 5,12A2,2 0 0,1 7,10A2,2 0 0,1 9,12A2,2 0 0,1 7,14M12.65,10C11.83,7.67 9.61,6 7, 6A6, 6 0 0, 0 1, 12A6, 6 0 0, 0 7, 18C9.61, 18 11.83, 16.33 12.65, 14H17V18H21V14H23V10H12.65Z" class="i pk" transform="translate(124, 48) scale(0.65)"></path><text x="13" y="86" class="tf fk">mem_name<tspan x="189" class="ty">VARCHAR(255),</tspan></text><text x="13" y="111" class="tf">chamber<tspan x="189" class="ty">VARCHAR(30),</tspan></text><text x="13" y="136" class="tf">mem_type<tspan x="189" class="ty">VARCHAR(255),</tspan></text><text x="13" y="161" class="tf">party<tspan x="189" class="ty">VARCHAR(30),</tspan></text><text x="13" y="186" class="tf fk">accounts<tspan x="189" class="ty">TEXT,</tspan></text><text x="13" y="211" class="tf fk">other_id<tspan x="189" class="ty">VARCHAR(255),</tspan></text><text x="13" y="236" class="tf">us_state<tspan x="189" class="ty">VARCHAR(30),</tspan></text><text x="13" y="261" class="tf">prev_prop<tspan x="189" class="ty">VARCHAR(140)</tspan></text></svg><svg width="208" height="150" x="31" y="270" id="h2420119588" class="t"><rect height="40" width="208" class="th"></rect><text x="13" y="25" class="tht">accounts</text><rect height="110" width="208" class="t-bg" y="40"></rect><text x="13" y="61" class="tf pk">account_id<tspan x="195" class="ty">BIGINT,</tspan></text><path d="M7,14A2,2 0 0,1 5,12A2,2 0 0,1 7,10A2,2 0 0,1 9,12A2,2 0 0,1 7,14M12.65,10C11.83,7.67 9.61,6 7, 6A6, 6 0 0, 0 1, 12A6, 6 0 0, 0 7, 18C9.61, 18 11.83, 16.33 12.65, 14H17V18H21V14H23V10H12.65Z" class="i pk" transform="translate(134, 48) scale(0.65)"></path><text x="13" y="86" class="tf fk">bioguide_id<tspan x="195" class="ty">VARCHAR(30),</tspan></text><text x="13" y="111" class="tf fk">mem_name<tspan x="195" class="ty">VARCHAR(255),</tspan></text><text x="13" y="136" class="tf fk">screen_name<tspan x="195" class="ty">VARCHAR(255)</tspan></text></svg><svg width="208" height="275" x="364" y="106.5" id="h2203459479" class="t"><rect height="40" width="208" class="th"></rect><text x="13" y="25" class="tht">final_table</text><rect height="235" width="208" class="t-bg" y="40"></rect><text x="13" y="61" class="tf fk">tweet_id<tspan x="195" class="ty">VARCHAR(255)</tspan></text><text x="13" y="86" class="tf fk">bioguide_id<tspan x="195" class="ty">VARCHAR(30)</tspan></text><text x="13" y="111" class="tf fk">screen_name<tspan x="195" class="ty">VARCHAR(255)</tspan></text><text x="13" y="136" class="tf fk">mem_name<tspan x="195" class="ty">VARCHAR(255)</tspan></text><text x="13" y="161" class="tf fk">twt_time<tspan x="195" class="ty">VARCHAR(255)</tspan></text><text x="13" y="186" class="tf fk">url<tspan x="195" class="ty">VARCHAR(255)</tspan></text><text x="13" y="211" class="tf fk">twt_txt<tspan x="195" class="ty">text</tspan></text><text x="13" y="236" class="tf fk">user_id<tspan x="195" class="ty">VARCHAR(255)</tspan></text><text x="13" y="261" class="tf fk">domain_name<tspan x="195" class="ty">text</tspan></text></svg><svg width="283" height="625" x="290.75" y="430.25" id="h530952189" class="t"><rect height="40" width="283" class="th"></rect><text x="13" y="25" class="tht">members</text><rect height="585" width="283" class="t-bg" y="40"></rect><text x="13" y="61" class="tf pk">table_id<tspan x="270" class="ty">SERIAL,</tspan></text><path d="M7,14A2,2 0 0,1 5,12A2,2 0 0,1 7,10A2,2 0 0,1 9,12A2,2 0 0,1 7,14M12.65,10C11.83,7.67 9.61,6 7, 6A6, 6 0 0, 0 1, 12A6, 6 0 0, 0 7, 18C9.61, 18 11.83, 16.33 12.65, 14H17V18H21V14H23V10H12.65Z" class="i pk" transform="translate(205, 48) scale(0.65)"></path><text x="13" y="86" class="tf">congress<tspan x="270" class="ty">INTEGER,</tspan></text><text x="13" y="111" class="tf">chamber<tspan x="270" class="ty">VARCHAR(30),</tspan></text><text x="13" y="136" class="tf">icpsr<tspan x="270" class="ty">INTEGER,</tspan></text><text x="13" y="161" class="tf">state_icpsr<tspan x="270" class="ty">INTEGER,</tspan></text><text x="13" y="186" class="tf">district_code<tspan x="270" class="ty">INTEGER,</tspan></text><text x="13" y="211" class="tf">state_abbr<tspan x="270" class="ty">VARCHAR(3),</tspan></text><text x="13" y="236" class="tf fk">party_code<tspan x="270" class="ty">INTEGER,</tspan></text><text x="13" y="261" class="tf">occupancy<tspan x="270" class="ty">VARCHAR(255),</tspan></text><text x="13" y="286" class="tf">last_means<tspan x="270" class="ty">VARCHAR(255),</tspan></text><text x="13" y="311" class="tf fk">bioname<tspan x="270" class="ty">VARCHAR(255),</tspan></text><text x="13" y="336" class="tf">bioguide_id<tspan x="270" class="ty">VARCHAR(30),</tspan></text><text x="13" y="361" class="tf">born<tspan x="270" class="ty">INTEGER,</tspan></text><text x="13" y="386" class="tf">diet<tspan x="270" class="ty">INTEGER,</tspan></text><text x="13" y="411" class="tf fk">nominate_dim1<tspan x="270" class="ty">DECIMAL,</tspan></text><text x="13" y="436" class="tf fk">nominate_dim2<tspan x="270" class="ty">DECIMAL,</tspan></text><text x="13" y="461" class="tf fk">nominate_log_likelihood<tspan x="270" class="ty">DECIMAL,</tspan></text><text x="13" y="486" class="tf fk">nominate_geo_mean_probability<tspan x="270" class="ty">DECIMAL,</tspan></text><text x="13" y="511" class="tf fk">nominate_number_of_vote<tspan x="270" class="ty">VARCHAR(10),</tspan></text><text x="13" y="536" class="tf fk">nominate_number_of_error<tspan x="270" class="ty">VARCHAR(10),</tspan></text><text x="13" y="561" class="tf">conditional<tspan x="270" class="ty">VARCHAR(255),</tspan></text><text x="13" y="586" class="tf fk">nokken_poole_dim1<tspan x="270" class="ty">DECIMAL,</tspan></text><text x="13" y="611" class="tf fk">nokken_poole_dim2<tspan x="270" class="ty">DECIMAL</tspan></text></svg><svg width="283" height="350" x="779.58" y="249.03" id="h3288127488" class="t"><rect height="40" width="283" class="th"></rect><text x="13" y="25" class="tht">analysis_table</text><rect height="310" width="283" class="t-bg" y="40"></rect><text x="13" y="61" class="tf fk">bioguide_id<tspan x="270" class="ty">VARCHAR(30)</tspan></text><text x="13" y="86" class="tf">domain_name<tspan x="270" class="ty">text</tspan></text><text x="13" y="111" class="tf fk">party_code<tspan x="270" class="ty">INTEGER</tspan></text><text x="13" y="136" class="tf fk">bioname<tspan x="270" class="ty">VARCHAR(255)</tspan></text><text x="13" y="161" class="tf">nominate_dim1<tspan x="270" class="ty">DECIMAL,</tspan></text><text x="13" y="186" class="tf">nominate_dim2<tspan x="270" class="ty">DECIMAL,</tspan></text><text x="13" y="211" class="tf fk">nominate_log_likelihood<tspan x="270" class="ty">DECIMAL,</tspan></text><text x="13" y="236" class="tf fk">nominate_geo_mean_probability<tspan x="270" class="ty">DECIMAL,</tspan></text><text x="13" y="261" class="tf fk">nominate_number_of_vote<tspan x="270" class="ty">VARCHAR(10),</tspan></text><text x="13" y="286" class="tf fk">nominate_number_of_error<tspan x="270" class="ty">VARCHAR(10),</tspan></text><text x="13" y="311" class="tf fk">nokken_poole_dim1<tspan x="270" class="ty">DECIMAL,</tspan></text><text x="13" y="336" class="tf fk">nokken_poole_dim2<tspan x="270" class="ty">DECIMAL</tspan></text></svg><svg width="181" height="275" x="843.75" y="676.25" id="h2545273391" class="t"><rect height="40" width="181" class="th"></rect><text x="13" y="25" class="tht">final_db</text><rect height="235" width="181" class="t-bg" y="40"></rect><text x="13" y="61" class="tf pk">table_id<tspan x="168" class="ty">SERIAL,</tspan></text><path d="M7,14A2,2 0 0,1 5,12A2,2 0 0,1 7,10A2,2 0 0,1 9,12A2,2 0 0,1 7,14M12.65,10C11.83,7.67 9.61,6 7, 6A6, 6 0 0, 0 1, 12A6, 6 0 0, 0 7, 18C9.61, 18 11.83, 16.33 12.65, 14H17V18H21V14H23V10H12.65Z" class="i pk" transform="translate(103, 48) scale(0.65)"></path><text x="13" y="86" class="tf fk">domain_name<tspan x="168" class="ty">text,</tspan></text><text x="13" y="111" class="tf">domain_count<tspan x="168" class="ty">bigint,</tspan></text><text x="13" y="136" class="tf fk">nominate_dim1<tspan x="168" class="ty">numeric,</tspan></text><text x="13" y="161" class="tf fk">nominate_dim2<tspan x="168" class="ty">numeric,</tspan></text><text x="13" y="186" class="tf">dim1_stddev<tspan x="168" class="ty">numeric,</tspan></text><text x="13" y="211" class="tf">dim2_stddev<tspan x="168" class="ty">numeric,</tspan></text><text x="13" y="236" class="tf">dim1_stderr<tspan x="168" class="ty">numeric,</tspan></text><text x="13" y="261" class="tf">dim2_stderr<tspan x="168" class="ty">numeric</tspan></text></svg></g></g><text class="qdbd-link" x="10" y="20">www.quickdatabasediagrams.com</text></svg>